<?xml version="1.0" encoding="utf-8"?>
<!-- Generator: Adobe Illustrator 16.0.0, SVG Export Plug-In . SVG Version: 6.00 Build 0)  -->
<!DOCTYPE svg PUBLIC "-//W3C//DTD SVG 1.1//EN" "http://www.w3.org/Graphics/SVG/1.1/DTD/svg11.dtd">
<svg version="1.1" id="Layer_1" xmlns="http://www.w3.org/2000/svg" xmlns:xlink="http://www.w3.org/1999/xlink" x="0px" y="0px"
	 width="32px" height="32px" viewBox="0 0 32 32" enable-background="new 0 0 32 32" xml:space="preserve">
<g>
	<path fill="#FFFFFF" d="M0,16c0,8.837,7.163,16,16,16c8.836,0,16-7.163,16-16S24.836,0,16,0C7.163,0,0,7.163,0,16z M29.5,16
		c0,7.456-6.045,13.5-13.5,13.5C8.543,29.5,2.5,23.456,2.5,16S8.543,2.5,16,2.5C23.455,2.5,29.5,8.544,29.5,16z"/>
	<path fill="#FFFFFF" d="M9.292,13.293c-0.391,0.391-0.391,1.023,0,1.414l6,6c0.391,0.391,1.023,0.391,1.414,0l6-6
		C22.902,14.512,23,14.256,23,14s-0.098-0.512-0.293-0.707c-0.391-0.391-1.023-0.391-1.414,0L16,18.586l-5.293-5.293
		C10.316,12.902,9.683,12.902,9.292,13.293z"/>
</g>
</svg>
